<?xml version="1.0" encoding="iso-8859-1"?>
<!-- Generator: Adobe Illustrator 19.0.0, SVG Export Plug-In . SVG Version: 6.00 Build 0)  -->
<svg version="1.1" id="Capa_1" xmlns="http://www.w3.org/2000/svg" xmlns:xlink="http://www.w3.org/1999/xlink" x="0px" y="0px"
	 viewBox="0 0 490 490" style="enable-background:new 0 0 490 490;" xml:space="preserve">
<g>
	<path d="M309.848,130.932c7.081,0,12.821-5.74,12.821-12.821s-5.74-12.821-12.821-12.821s-12.821,5.74-12.821,12.821
		S302.767,130.932,309.848,130.932z M309.848,113.53c2.091,0,3.787,2.051,3.787,4.581s-1.695,4.581-3.787,4.581
		s-3.787-2.051-3.787-4.581S307.757,113.53,309.848,113.53z"/>
	<path d="M345.796,168.19c7.081,0,12.821-5.74,12.821-12.821s-5.74-12.821-12.821-12.821s-12.821,5.74-12.821,12.821
		S338.715,168.19,345.796,168.19z M345.796,150.789c2.091,0,3.787,2.051,3.787,4.581s-1.695,4.581-3.787,4.581
		s-3.787-2.051-3.787-4.581S343.704,150.789,345.796,150.789z"/>
	<path d="M245,0C109.906,0,0,109.906,0,245c0,135.094,109.906,245,245,245c135.094,0,245-109.906,245-245
		C490,109.906,380.094,0,245,0z M245,469.149C121.405,469.149,20.851,368.595,20.851,245C20.851,121.406,121.405,20.851,245,20.851
		c123.594,0,224.149,100.555,224.149,224.149C469.149,368.595,368.594,469.149,245,469.149z"/>
	<polygon points="142.869,167.506 156.553,167.506 156.553,103.735 130.739,103.735 130.739,115.879 142.869,115.879 	"/>
	<path d="M196.143,168.229c8.811,0,15.409-2.989,19.795-8.981c4.372-5.993,6.559-13.987,6.559-23.983
		c0-10.01-2.186-18.004-6.559-23.997c-4.386-5.993-10.984-8.981-19.795-8.981c-8.824,0-15.422,2.989-19.795,8.981
		c-4.385,5.993-6.571,13.987-6.571,23.997c0,9.996,2.186,17.99,6.571,23.983C180.72,165.241,187.319,168.229,196.143,168.229z
		 M186.739,119.882c2.015-3.886,5.137-5.834,9.404-5.834c4.255,0,7.389,1.949,9.39,5.834c2.002,3.898,3.016,9.035,3.016,15.422
		s-1.014,11.523-3.016,15.422c-2.002,3.885-5.136,5.834-9.39,5.834c-4.267,0-7.388-1.95-9.404-5.834
		c-2.002-3.899-3.002-9.035-3.002-15.422S184.737,123.78,186.739,119.882z"/>
	<path d="M259.084,168.229c8.811,0,15.409-2.989,19.794-8.981c4.374-5.993,6.56-13.987,6.56-23.983
		c0-10.01-2.186-18.004-6.56-23.997c-4.385-5.993-10.983-8.981-19.794-8.981c-8.824,0-15.423,2.989-19.795,8.981
		c-4.386,5.993-6.572,13.987-6.572,23.997c0,9.996,2.186,17.99,6.572,23.983C243.661,165.241,250.26,168.229,259.084,168.229z
		 M249.68,119.882c2.015-3.886,5.136-5.834,9.404-5.834c4.253,0,7.388,1.949,9.39,5.834c2.002,3.898,3.016,9.035,3.016,15.422
		s-1.014,11.523-3.016,15.422c-2.002,3.885-5.137,5.834-9.39,5.834c-4.267,0-7.389-1.95-9.404-5.834
		c-2.002-3.899-3.003-9.035-3.003-15.422S247.678,123.78,249.68,119.882z"/>
	<path d="M312.634,167.506h-15.686l45.793-63.771h15.594L312.634,167.506z"/>
	<path d="M122.632,251.447c1.75,0.254,4,0.376,6.5,0.376c11.255,0,20.881-2.75,27.387-8.878c4.999-4.749,7.748-11.754,7.748-20.006
		c0-8.251-3.624-15.251-9-19.507c-5.625-4.5-14.004-6.751-25.758-6.751c-11.627,0-19.878,0.749-25.759,1.752v83.149h18.882V251.447z
		 M122.632,211.812c1.375-0.376,4-0.749,7.875-0.749c9.505,0,14.88,4.628,14.88,12.376c0,8.628-6.251,13.754-16.376,13.754
		c-2.755,0-4.755-0.122-6.379-0.5V211.812z"/>
	<path d="M210.699,267.706c-9.753,0-15.251-7.381-15.251-21.884v-48.513h-19.13v47.012c0,26.883,12.502,38.637,33.756,38.637
		c22.006,0,35.135-12.375,35.135-38.388v-47.261h-19.004v48.513C226.205,260.702,220.702,267.706,210.699,267.706z"/>
	<path d="M300.019,261.954c2.5,10.375,4.505,17.252,5.88,19.629h19.502c-1.624-3.252-4.25-14.253-6.878-23.757
		c-2.123-7.753-5.375-13.378-11.25-15.755v-0.372c7.249-2.626,14.88-10.003,14.88-20.759c0-7.752-2.754-13.627-7.753-17.628
		c-6.002-4.75-14.752-6.629-27.26-6.629c-10.125,0-19.253,0.749-25.382,1.752v83.149h18.881v-33.134h5.753
		C294.144,248.571,297.769,251.447,300.019,261.954z M280.639,211.435c1.375-0.249,4.001-0.622,8.629-0.622
		c8.75,0.122,14.004,4.001,14.004,11.755c0,7.376-5.625,12.125-15.129,12.125h-7.503V211.435z"/>
	<polygon points="387.959,212.937 387.959,197.309 335.943,197.309 335.943,281.583 389.709,281.583 389.709,265.956 
		355.074,265.956 355.074,245.949 386.086,245.949 386.086,230.443 355.074,230.443 355.074,212.937 	"/>
	<path d="M137.171,316.978c-3.925-3.14-9.764-4.708-17.96-4.708c-8.109,0-13.862,0.524-17.959,1.222v57.971h13.164v-21.009
		c1.222,0.173,2.79,0.26,4.535,0.26c7.845,0,14.559-1.914,19.09-6.19c3.487-3.309,5.406-8.19,5.406-13.949
		C143.447,324.823,140.918,319.941,137.171,316.978z M118.859,340.517c-1.913,0-3.308-0.086-4.443-0.351v-17.348
		c0.962-0.26,2.79-0.52,5.492-0.52c6.629,0,10.375,3.223,10.375,8.628C130.283,336.938,125.926,340.517,118.859,340.517z"/>
	<path d="M162.553,336.679h-0.351l-0.438-7.845h-11.418c0.173,3.66,0.351,7.759,0.351,14.035v28.594h13.251
		c0,0,0.087-23.712,0.26-24.583c0.869-4.098,4.184-6.715,9.066-6.715c1.481,0,2.617,0.173,3.574,0.351V328.05
		c-0.957-0.173-1.568-0.173-2.79-0.173C169.959,327.877,164.731,330.488,162.553,336.679z"/>
	<path d="M203.445,327.877c-13.688,0-22.754,8.802-22.754,22.577c0,13.774,9.59,21.966,22.057,21.966
		c11.418,0,22.491-7.148,22.491-22.75C225.239,336.852,216.518,327.877,203.445,327.877z M203.094,362.921
		c-5.665,0-8.715-5.493-8.715-12.818c0-6.277,2.352-12.813,8.715-12.813c6.018,0,8.456,6.449,8.456,12.813
		C211.55,357.774,208.241,362.921,203.094,362.921z"/>
	<path d="M275.023,309.566h-13.25v23.101h-0.173c-1.919-2.963-6.018-4.791-11.251-4.791c-10.196,0-19.176,8.278-19.089,22.664
		c0,13.25,8.109,21.879,18.22,21.879c5.492,0,10.634-2.438,13.336-7.234h0.178l0.611,6.277h11.765
		c-0.174-2.876-0.347-7.931-0.347-12.727V309.566z M261.422,355.509c-0.784,3.747-3.833,6.364-7.672,6.364
		c-5.487,0-9.066-4.531-9.066-11.77c0-6.71,3.141-12.116,9.158-12.116c4.093,0,6.975,2.962,7.759,6.536
		C261.687,345.221,261.687,354.552,261.422,355.509z"/>
	<path d="M325.858,328.834h-13.337V354.2c0,1.049-0.59,7.499-7.06,7.499c-4.623,0-6.628-3.747-6.628-9.938v-22.928h-13.338v25.02
		c0,13.165,6.364,18.566,14.997,18.566c7.672,0,11.683-4.358,13.337-6.975h0.26l0.611,6.018h11.51
		c-0.173-3.574-0.352-8.109-0.352-13.689V328.834z"/>
	<path d="M359.084,338.074c3.487,0,5.839,0.611,7.413,1.307l2.093-9.85c-2.79-1.049-6.629-1.654-10.116-1.654
		c-15.867,0-24.409,10.197-24.409,22.664c0,13.424,8.807,21.792,22.578,21.792c5.059,0,9.504-0.871,11.861-1.919l-1.573-9.764
		c-2.006,0.789-4.444,1.309-7.585,1.309c-6.449,0-11.678-4.099-11.678-11.942C347.58,343.042,352.111,338.074,359.084,338.074z"/>
	<path d="M392.047,316.626l-12.991,2.968v9.239h-5.666v9.765h5.666v17.435c0,6.012,1.222,10.109,3.659,12.64
		c2.098,2.179,5.671,3.661,9.943,3.661c3.746,0,6.887-0.433,8.628-1.13l-0.087-10.028c-0.957,0.178-2.265,0.352-3.925,0.352
		c-4.007,0-5.227-2.357-5.227-7.499v-15.429h9.504v-9.765h-9.504V316.626z"/>
</g>
<g>
</g>
<g>
</g>
<g>
</g>
<g>
</g>
<g>
</g>
<g>
</g>
<g>
</g>
<g>
</g>
<g>
</g>
<g>
</g>
<g>
</g>
<g>
</g>
<g>
</g>
<g>
</g>
<g>
</g>
</svg>
